<svg width="60" height="60" viewBox="0 0 60 60" fill="none" xmlns="http://www.w3.org/2000/svg">
<path d="M32.5399 3.1023C32.5399 1.70963 31.4028 0.580643 30.0001 0.580643C28.5973 0.580643 27.4602 1.70963 27.4602 3.1023L27.4602 27.4783H2.90815C1.50542 27.4783 0.368286 28.6073 0.368286 30C0.368286 31.3927 1.50542 32.5217 2.90815 32.5217H27.4602V56.8977C27.4602 58.2904 28.5973 59.4194 30.0001 59.4194C31.4028 59.4194 32.5399 58.2904 32.5399 56.8977V32.5217H57.092C58.4947 32.5217 59.6318 31.3927 59.6318 30C59.6318 28.6073 58.4947 27.4783 57.092 27.4783H32.5399L32.5399 3.1023Z" fill="white"/>
</svg>
