<svg width="114" height="32" viewBox="0 0 114 32" fill="none" xmlns="http://www.w3.org/2000/svg">
<path d="M26.0003 16.0001C26.0003 9.05713 20.3719 3.42871 13.4289 3.42871C6.48584 3.42871 0.857422 9.05713 0.857422 16.0001C0.857422 22.9431 6.48584 28.5716 13.4289 28.5716C20.3719 28.5716 26.0003 22.9431 26.0003 16.0001Z" fill="url(#paint0_linear_187_115)"/>
<path fill-rule="evenodd" clip-rule="evenodd" d="M16.867 9.12793H9.81174L11.5756 12.1939H15.1032L16.867 9.12793ZM17.5903 15.6207L15.7761 12.4671L17.5399 9.40107L21.1179 15.6207H17.5903ZM15.787 19.5146L17.6121 16.3421H21.1397L17.5508 22.5806L15.787 19.5146ZM11.5537 19.8067H15.125L16.8888 22.8727H9.78997L11.5537 19.8067ZM9.24637 16.3421L10.9816 19.3584L9.2178 22.4244L5.71875 16.3421H9.24637ZM10.9925 12.6233L9.2682 15.6207H5.74056L9.22872 9.5573L10.9925 12.6233Z" fill="white"/>
<path d="M36.5786 21.8265C35.8319 21.8265 35.1599 21.6985 34.5626 21.4425C33.9653 21.1758 33.4959 20.8025 33.1546 20.3225C32.8133 19.8425 32.6426 19.2825 32.6426 18.6425H34.5946C34.6373 19.1225 34.8239 19.5172 35.1546 19.8265C35.4959 20.1358 35.9706 20.2905 36.5786 20.2905C37.2079 20.2905 37.6986 20.1412 38.0506 19.8425C38.4026 19.5332 38.5786 19.1385 38.5786 18.6585C38.5786 18.2852 38.4666 17.9812 38.2426 17.7465C38.0293 17.5118 37.7573 17.3305 37.4266 17.2025C37.1066 17.0745 36.6586 16.9358 36.0826 16.7865C35.3573 16.5945 34.7653 16.4025 34.3066 16.2105C33.8586 16.0078 33.4746 15.6985 33.1546 15.2825C32.8346 14.8665 32.6746 14.3118 32.6746 13.6185C32.6746 12.9785 32.8346 12.4185 33.1546 11.9385C33.4746 11.4585 33.9226 11.0905 34.4986 10.8345C35.0746 10.5785 35.7413 10.4505 36.4986 10.4505C37.5759 10.4505 38.4559 10.7225 39.1386 11.2665C39.8319 11.7998 40.2159 12.5358 40.2906 13.4745H38.2746C38.2426 13.0692 38.0506 12.7225 37.6986 12.4345C37.3466 12.1465 36.8826 12.0025 36.3066 12.0025C35.7839 12.0025 35.3573 12.1358 35.0266 12.4025C34.6959 12.6692 34.5306 13.0532 34.5306 13.5545C34.5306 13.8958 34.6319 14.1785 34.8346 14.4025C35.0479 14.6158 35.3146 14.7865 35.6346 14.9145C35.9546 15.0425 36.3919 15.1812 36.9466 15.3305C37.6826 15.5332 38.2799 15.7358 38.7386 15.9385C39.2079 16.1412 39.6026 16.4558 39.9226 16.8825C40.2533 17.2985 40.4186 17.8585 40.4186 18.5625C40.4186 19.1278 40.2639 19.6612 39.9546 20.1625C39.6559 20.6638 39.2133 21.0692 38.6266 21.3785C38.0506 21.6772 37.3679 21.8265 36.5786 21.8265ZM41.8028 17.2665C41.8028 16.3812 41.9842 15.5972 42.3468 14.9145C42.7202 14.2318 43.2215 13.7038 43.8508 13.3305C44.4908 12.9465 45.1948 12.7545 45.9628 12.7545C46.6562 12.7545 47.2588 12.8932 47.7708 13.1705C48.2935 13.4372 48.7095 13.7732 49.0188 14.1785V12.8985H50.8588V21.7145H49.0188V20.4025C48.7095 20.8185 48.2882 21.1652 47.7548 21.4425C47.2215 21.7198 46.6135 21.8585 45.9308 21.8585C45.1735 21.8585 44.4802 21.6665 43.8508 21.2825C43.2215 20.8878 42.7202 20.3438 42.3468 19.6505C41.9842 18.9465 41.8028 18.1518 41.8028 17.2665ZM49.0188 17.2985C49.0188 16.6905 48.8908 16.1625 48.6348 15.7145C48.3895 15.2665 48.0642 14.9252 47.6588 14.6905C47.2535 14.4558 46.8162 14.3385 46.3468 14.3385C45.8775 14.3385 45.4402 14.4558 45.0348 14.6905C44.6295 14.9145 44.2988 15.2505 44.0428 15.6985C43.7975 16.1358 43.6748 16.6585 43.6748 17.2665C43.6748 17.8745 43.7975 18.4078 44.0428 18.8665C44.2988 19.3252 44.6295 19.6772 45.0348 19.9225C45.4508 20.1572 45.8882 20.2745 46.3468 20.2745C46.8162 20.2745 47.2535 20.1572 47.6588 19.9225C48.0642 19.6878 48.3895 19.3465 48.6348 18.8985C48.8908 18.4398 49.0188 17.9065 49.0188 17.2985ZM55.2226 14.3865V19.2665C55.2226 19.5972 55.2973 19.8372 55.4466 19.9865C55.6066 20.1252 55.8733 20.1945 56.2466 20.1945H57.3666V21.7145H55.9266C55.1053 21.7145 54.4759 21.5225 54.0386 21.1385C53.6013 20.7545 53.3826 20.1305 53.3826 19.2665V14.3865H52.3426V12.8985H53.3826V10.7065H55.2226V12.8985H57.3666V14.3865H55.2226ZM66.9677 17.0905C66.9677 17.4212 66.9466 17.7198 66.9037 17.9865H60.1677C60.2209 18.6905 60.4826 19.2558 60.9517 19.6825C61.4209 20.1092 61.9969 20.3225 62.6797 20.3225C63.6609 20.3225 64.3546 19.9118 64.7597 19.0905H66.7277C66.4609 19.9012 65.9757 20.5678 65.2717 21.0905C64.5786 21.6025 63.7146 21.8585 62.6797 21.8585C61.8369 21.8585 61.0797 21.6718 60.4077 21.2985C59.7466 20.9145 59.2237 20.3812 58.8397 19.6985C58.4666 19.0052 58.2797 18.2052 58.2797 17.2985C58.2797 16.3918 58.4609 15.5972 58.8237 14.9145C59.1969 14.2212 59.7146 13.6878 60.3757 13.3145C61.0477 12.9412 61.8157 12.7545 62.6797 12.7545C63.5117 12.7545 64.2529 12.9358 64.9037 13.2985C65.5546 13.6612 66.0609 14.1732 66.4237 14.8345C66.7866 15.4852 66.9677 16.2372 66.9677 17.0905ZM65.0637 16.5145C65.0529 15.8425 64.8129 15.3038 64.3437 14.8985C63.8746 14.4932 63.2929 14.2905 62.5997 14.2905C61.9706 14.2905 61.4317 14.4932 60.9837 14.8985C60.5357 15.2932 60.2689 15.8318 60.1837 16.5145H65.0637ZM70.4266 9.87453V21.7145H68.6026V9.87453H70.4266ZM74.4854 9.87453V21.7145H72.6614V9.87453H74.4854ZM77.6483 11.7305C77.3174 11.7305 77.0403 11.6185 76.8163 11.3945C76.5923 11.1705 76.4803 10.8932 76.4803 10.5625C76.4803 10.2318 76.5923 9.95453 76.8163 9.73053C77.0403 9.50653 77.3174 9.39453 77.6483 9.39453C77.9683 9.39453 78.2403 9.50653 78.4643 9.73053C78.6883 9.95453 78.8003 10.2318 78.8003 10.5625C78.8003 10.8932 78.6883 11.1705 78.4643 11.3945C78.2403 11.6185 77.9683 11.7305 77.6483 11.7305ZM78.5443 12.8985V21.7145H76.7203V12.8985H78.5443ZM82.9071 14.3865V19.2665C82.9071 19.5972 82.9814 19.8372 83.1311 19.9865C83.2911 20.1252 83.5574 20.1945 83.9311 20.1945H85.0511V21.7145H83.6111C82.7894 21.7145 82.1603 21.5225 81.7231 21.1385C81.2854 20.7545 81.0671 20.1305 81.0671 19.2665V14.3865H80.0271V12.8985H81.0671V10.7065H82.9071V12.8985H85.0511V14.3865H82.9071ZM94.6523 17.0905C94.6523 17.4212 94.6306 17.7198 94.5883 17.9865H87.8523C87.9054 18.6905 88.1666 19.2558 88.6363 19.6825C89.1054 20.1092 89.6814 20.3225 90.3643 20.3225C91.3454 20.3225 92.0386 19.9118 92.4443 19.0905H94.4123C94.1454 19.9012 93.6603 20.5678 92.9563 21.0905C92.2626 21.6025 91.3986 21.8585 90.3643 21.8585C89.5214 21.8585 88.7643 21.6718 88.0923 21.2985C87.4306 20.9145 86.9083 20.3812 86.5243 19.6985C86.1506 19.0052 85.9643 18.2052 85.9643 17.2985C85.9643 16.3918 86.1454 15.5972 86.5083 14.9145C86.8814 14.2212 87.3986 13.6878 88.0603 13.3145C88.7323 12.9412 89.5003 12.7545 90.3643 12.7545C91.1963 12.7545 91.9374 12.9358 92.5883 13.2985C93.2386 13.6612 93.7454 14.1732 94.1083 14.8345C94.4706 15.4852 94.6523 16.2372 94.6523 17.0905ZM92.7483 16.5145C92.7374 15.8425 92.4974 15.3038 92.0283 14.8985C91.5586 14.4932 90.9774 14.2905 90.2843 14.2905C89.6546 14.2905 89.1163 14.4932 88.6683 14.8985C88.2203 15.2932 87.9534 15.8318 87.8683 16.5145H92.7483ZM106.987 19.4425H102.331L101.531 21.7145H99.6271L103.611 10.5785H105.723L109.707 21.7145H107.787L106.987 19.4425ZM106.475 17.9545L104.667 12.7865L102.843 17.9545H106.475ZM113.104 10.5945V21.7145H111.28V10.5945H113.104Z" fill="white"/>
<defs>
<linearGradient id="paint0_linear_187_115" x1="0.857422" y1="25.521" x2="26.9433" y2="24.1271" gradientUnits="userSpaceOnUse">
<stop stop-color="#6356FE"/>
<stop offset="0.303754" stop-color="#764AEF"/>
<stop offset="0.618202" stop-color="#8A3EDF"/>
<stop offset="1" stop-color="#A330CB"/>
</linearGradient>
</defs>
</svg>
