<svg width="156" height="44" viewBox="0 0 156 44" fill="none" xmlns="http://www.w3.org/2000/svg">
<path d="M35.3751 22.0001C35.3751 12.4534 27.6361 4.71436 18.0894 4.71436C8.54279 4.71436 0.803711 12.4534 0.803711 22.0001C0.803711 31.5467 8.54279 39.2858 18.0894 39.2858C27.6361 39.2858 35.3751 31.5467 35.3751 22.0001Z" fill="url(#paint0_linear_152_49)"/>
<path fill-rule="evenodd" clip-rule="evenodd" d="M22.8162 12.5508H13.1152L15.5404 16.7665H20.3909L22.8162 12.5508ZM23.8106 21.4783L21.3161 17.1421L23.7414 12.9264L28.6612 21.4783H23.8106ZM21.3311 26.8325L23.8406 22.4703H28.6911L23.7563 31.0482L21.3311 26.8325ZM15.5104 27.2341H20.4209L22.8461 31.4499H13.0852L15.5104 27.2341ZM12.3378 22.4703L14.7238 26.6177L12.2985 30.8335L7.4873 22.4703H12.3378ZM14.7387 17.3569L12.3678 21.4783H7.51729L12.3135 13.1412L14.7387 17.3569Z" fill="white"/>
<path d="M49.9198 30.011C48.8931 30.011 47.9691 29.835 47.1478 29.483C46.3265 29.1163 45.6811 28.603 45.2118 27.943C44.7425 27.283 44.5078 26.513 44.5078 25.633H47.1918C47.2505 26.293 47.5071 26.8357 47.9618 27.261C48.4311 27.6863 49.0838 27.899 49.9198 27.899C50.7851 27.899 51.4598 27.6937 51.9438 27.283C52.4278 26.8577 52.6698 26.315 52.6698 25.655C52.6698 25.1417 52.5158 24.7237 52.2078 24.401C51.9145 24.0783 51.5405 23.829 51.0858 23.653C50.6458 23.477 50.0298 23.2863 49.2378 23.081C48.2405 22.817 47.4265 22.553 46.7958 22.289C46.1798 22.0103 45.6518 21.585 45.2118 21.013C44.7718 20.441 44.5518 19.6783 44.5518 18.725C44.5518 17.845 44.7718 17.075 45.2118 16.415C45.6518 15.755 46.2678 15.249 47.0598 14.897C47.8518 14.545 48.7685 14.369 49.8098 14.369C51.2911 14.369 52.5011 14.743 53.4398 15.491C54.3931 16.2243 54.9211 17.2363 55.0238 18.527H52.2518C52.2078 17.9697 51.9438 17.493 51.4598 17.097C50.9758 16.701 50.3378 16.503 49.5458 16.503C48.8271 16.503 48.2405 16.6863 47.7858 17.053C47.3311 17.4197 47.1038 17.9477 47.1038 18.637C47.1038 19.1063 47.2431 19.495 47.5218 19.803C47.8151 20.0963 48.1818 20.331 48.6218 20.507C49.0618 20.683 49.6631 20.8737 50.4258 21.079C51.4378 21.3577 52.2591 21.6363 52.8898 21.915C53.5351 22.1937 54.0778 22.6263 54.5178 23.213C54.9725 23.785 55.1998 24.555 55.1998 25.523C55.1998 26.3003 54.9871 27.0337 54.5618 27.723C54.1511 28.4123 53.5425 28.9697 52.7358 29.395C51.9438 29.8057 51.0051 30.011 49.9198 30.011ZM57.1031 23.741C57.1031 22.5237 57.3525 21.4457 57.8511 20.507C58.3645 19.5683 59.0538 18.8423 59.9191 18.329C60.7991 17.801 61.7671 17.537 62.8231 17.537C63.7765 17.537 64.6051 17.7277 65.3091 18.109C66.0278 18.4757 66.5998 18.9377 67.0251 19.495V17.735H69.5551V29.857H67.0251V28.053C66.5998 28.625 66.0205 29.1017 65.2871 29.483C64.5538 29.8643 63.7178 30.055 62.7791 30.055C61.7378 30.055 60.7845 29.791 59.9191 29.263C59.0538 28.7203 58.3645 27.9723 57.8511 27.019C57.3525 26.051 57.1031 24.9583 57.1031 23.741ZM67.0251 23.785C67.0251 22.949 66.8491 22.223 66.4971 21.607C66.1598 20.991 65.7125 20.5217 65.1551 20.199C64.5978 19.8763 63.9965 19.715 63.3511 19.715C62.7058 19.715 62.1045 19.8763 61.5471 20.199C60.9898 20.507 60.5351 20.969 60.1831 21.585C59.8458 22.1863 59.6771 22.905 59.6771 23.741C59.6771 24.577 59.8458 25.3103 60.1831 25.941C60.5351 26.5717 60.9898 27.0557 61.5471 27.393C62.1191 27.7157 62.7205 27.877 63.3511 27.877C63.9965 27.877 64.5978 27.7157 65.1551 27.393C65.7125 27.0703 66.1598 26.601 66.4971 25.985C66.8491 25.3543 67.0251 24.621 67.0251 23.785ZM75.5553 19.781V26.491C75.5553 26.9457 75.658 27.2757 75.8633 27.481C76.0833 27.6717 76.45 27.767 76.9633 27.767H78.5033V29.857H76.5233C75.394 29.857 74.5286 29.593 73.9273 29.065C73.326 28.537 73.0253 27.679 73.0253 26.491V19.781H71.5953V17.735H73.0253V14.721H75.5553V17.735H78.5033V19.781H75.5553ZM91.7049 23.499C91.7049 23.9537 91.6758 24.3643 91.6169 24.731H82.3549C82.428 25.699 82.7878 26.4763 83.4329 27.063C84.078 27.6497 84.87 27.943 85.8089 27.943C87.158 27.943 88.1118 27.3783 88.6689 26.249H91.3749C91.008 27.3637 90.3409 28.2803 89.3729 28.999C88.4198 29.703 87.2318 30.055 85.8089 30.055C84.65 30.055 83.6089 29.7983 82.6849 29.285C81.7758 28.757 81.0569 28.0237 80.5289 27.085C80.0158 26.1317 79.7589 25.0317 79.7589 23.785C79.7589 22.5383 80.008 21.4457 80.5069 20.507C81.02 19.5537 81.7318 18.8203 82.6409 18.307C83.5649 17.7937 84.6209 17.537 85.8089 17.537C86.9529 17.537 87.972 17.7863 88.8669 18.285C89.7618 18.7837 90.458 19.4877 90.9569 20.397C91.4558 21.2917 91.7049 22.3257 91.7049 23.499ZM89.0869 22.707C89.072 21.783 88.742 21.0423 88.0969 20.485C87.4518 19.9277 86.652 19.649 85.6989 19.649C84.8338 19.649 84.0929 19.9277 83.4769 20.485C82.8609 21.0277 82.494 21.7683 82.3769 22.707H89.0869ZM96.4608 13.577V29.857H93.9528V13.577H96.4608ZM102.042 13.577V29.857H99.5337V13.577H102.042ZM106.391 16.129C105.936 16.129 105.555 15.975 105.247 15.667C104.939 15.359 104.785 14.9777 104.785 14.523C104.785 14.0683 104.939 13.687 105.247 13.379C105.555 13.071 105.936 12.917 106.391 12.917C106.831 12.917 107.205 13.071 107.513 13.379C107.821 13.687 107.975 14.0683 107.975 14.523C107.975 14.9777 107.821 15.359 107.513 15.667C107.205 15.975 106.831 16.129 106.391 16.129ZM107.623 17.735V29.857H105.115V17.735H107.623ZM113.622 19.781V26.491C113.622 26.9457 113.724 27.2757 113.93 27.481C114.15 27.6717 114.516 27.767 115.03 27.767H116.57V29.857H114.59C113.46 29.857 112.595 29.593 111.994 29.065C111.392 28.537 111.092 27.679 111.092 26.491V19.781H109.662V17.735H111.092V14.721H113.622V17.735H116.57V19.781H113.622ZM129.771 23.499C129.771 23.9537 129.741 24.3643 129.683 24.731H120.421C120.494 25.699 120.853 26.4763 121.499 27.063C122.144 27.6497 122.936 27.943 123.875 27.943C125.224 27.943 126.177 27.3783 126.735 26.249H129.441C129.074 27.3637 128.407 28.2803 127.439 28.999C126.485 29.703 125.297 30.055 123.875 30.055C122.716 30.055 121.675 29.7983 120.751 29.285C119.841 28.757 119.123 28.0237 118.595 27.085C118.081 26.1317 117.825 25.0317 117.825 23.785C117.825 22.5383 118.074 21.4457 118.573 20.507C119.086 19.5537 119.797 18.8203 120.707 18.307C121.631 17.7937 122.687 17.537 123.875 17.537C125.019 17.537 126.038 17.7863 126.933 18.285C127.827 18.7837 128.524 19.4877 129.023 20.397C129.521 21.2917 129.771 22.3257 129.771 23.499ZM127.153 22.707C127.138 21.783 126.808 21.0423 126.163 20.485C125.517 19.9277 124.718 19.649 123.765 19.649C122.899 19.649 122.159 19.9277 121.543 20.485C120.927 21.0277 120.56 21.7683 120.443 22.707H127.153ZM146.732 26.733H140.33L139.23 29.857H136.612L142.09 14.545H144.994L150.472 29.857H147.832L146.732 26.733ZM146.028 24.687L143.542 17.581L141.034 24.687H146.028ZM155.142 14.567V29.857H152.634V14.567H155.142Z" fill="white"/>
<defs>
<linearGradient id="paint0_linear_152_49" x1="0.803711" y1="35.0912" x2="36.6718" y2="33.1746" gradientUnits="userSpaceOnUse">
<stop stop-color="#6356FE"/>
<stop offset="0.303754" stop-color="#764AEF"/>
<stop offset="0.618202" stop-color="#8A3EDF"/>
<stop offset="1" stop-color="#A330CB"/>
</linearGradient>
</defs>
</svg>
