<svg width="224" height="995" viewBox="0 0 224 995" fill="none" xmlns="http://www.w3.org/2000/svg">
<path d="M870.565 58.7654L631.847 199.699L170.703 736.224L68.5744 991.852L870.565 58.7654Z" fill="url(#paint0_linear_26_5074)" fill-opacity="0.8"/>
<path d="M870.565 58.7654L631.847 199.699L170.703 736.224L68.5744 991.852L870.565 58.7654Z" fill="url(#paint1_linear_26_5074)" fill-opacity="0.3"/>
<mask id="mask0_26_5074" style="mask-type:alpha" maskUnits="userSpaceOnUse" x="68" y="58" width="803" height="934">
<path d="M870.571 58.78L631.854 199.713L170.709 736.238L68.5813 991.867L870.571 58.78Z" fill="black"/>
</mask>
<g mask="url(#mask0_26_5074)">
<g style="mix-blend-mode:screen">
<g style="mix-blend-mode:lighten">
<ellipse cx="352.303" cy="221.264" rx="352.303" ry="221.264" transform="matrix(-0.99893 -0.0462529 -0.606999 0.794702 1113.08 40.2493)" fill="url(#paint2_diamond_26_5074)"/>
</g>
<g style="mix-blend-mode:lighten">
<ellipse cx="411.998" cy="341.225" rx="411.998" ry="341.225" transform="matrix(0.606999 -0.794702 -0.99893 -0.046253 717.599 543.019)" fill="url(#paint3_diamond_26_5074)" fill-opacity="0.3"/>
</g>
</g>
</g>
<path d="M870.53 58.7241L68.5404 991.811" stroke="url(#paint4_linear_26_5074)" stroke-width="8.42152" style="mix-blend-mode:overlay"/>
<defs>
<linearGradient id="paint0_linear_26_5074" x1="334.013" y1="544.126" x2="403.042" y2="603.457" gradientUnits="userSpaceOnUse">
<stop stop-opacity="0"/>
<stop offset="1" stop-color="#3724CE"/>
</linearGradient>
<linearGradient id="paint1_linear_26_5074" x1="797.319" y1="135.937" x2="609.724" y2="341.187" gradientUnits="userSpaceOnUse">
<stop stop-color="#3724CE"/>
<stop offset="1" stop-opacity="0"/>
</linearGradient>
<radialGradient id="paint2_diamond_26_5074" cx="0" cy="0" r="1" gradientUnits="userSpaceOnUse" gradientTransform="translate(352.303 221.264) rotate(90.0068) scale(240.929 383.613)">
<stop stop-color="#7CEFFF"/>
<stop offset="0.546875" stop-color="#0E00A6" stop-opacity="0"/>
<stop offset="1" stop-opacity="0"/>
</radialGradient>
<radialGradient id="paint3_diamond_26_5074" cx="0" cy="0" r="1" gradientUnits="userSpaceOnUse" gradientTransform="translate(411.998 341.225) rotate(90) scale(341.225 411.998)">
<stop stop-color="#B0DEFF"/>
<stop offset="0.353727" stop-color="#DF29FF" stop-opacity="0"/>
<stop offset="1" stop-opacity="0"/>
</radialGradient>
<linearGradient id="paint4_linear_26_5074" x1="870.151" y1="58.3982" x2="68.1611" y2="991.485" gradientUnits="userSpaceOnUse">
<stop stop-color="white"/>
<stop offset="1" stop-color="white" stop-opacity="0"/>
</linearGradient>
</defs>
</svg>
