<svg width="32" height="32" viewBox="0 0 32 32" fill="none" xmlns="http://www.w3.org/2000/svg">
<path d="M10 16L9 16L10 16ZM22 16L23 16L22 16ZM16 22L16 23L16 22ZM19.1041 30.6784L19.31 31.657L19.1041 30.6784ZM12.8959 30.6784L12.69 31.657L12.8959 30.6784ZM2.10791 10.3318L1.18215 9.95368L1.18215 9.95368L2.10791 10.3318ZM1.32157 19.1041L0.343002 19.31L1.32157 19.1041ZM12.8959 1.32157L12.69 0.343003L12.8959 1.32157ZM19.1041 1.32157L19.31 0.343004L19.1041 1.32157ZM29.7713 10.3859L30.0615 11.3429L29.7713 10.3859ZM2.22695 10.3854L1.93668 11.3423L2.22695 10.3854ZM28.9679 10.7137C29.633 12.3435 30 14.1276 30 16H32C32 13.8641 31.5809 11.8236 30.8196 9.95805L28.9679 10.7137ZM30 16C30 16.9946 29.8964 17.964 29.6999 18.8982L31.657 19.31C31.8819 18.2412 32 17.1338 32 16H30ZM29.6999 18.8982C28.5625 24.3035 24.3035 28.5625 18.8982 29.6999L19.31 31.657C25.4912 30.3563 30.3564 25.4912 31.657 19.31L29.6999 18.8982ZM18.8982 29.6999C17.964 29.8964 16.9946 30 16 30V32C17.1338 32 18.2412 31.8819 19.31 31.657L18.8982 29.6999ZM16 30C15.0054 30 14.036 29.8964 13.1018 29.6999L12.69 31.657C13.7588 31.8819 14.8662 32 16 32V30ZM2 16C2 14.1262 2.36759 12.3407 3.03367 10.7099L1.18215 9.95368C0.419712 11.8204 3.57628e-07 13.8624 3.57628e-07 16H2ZM13.1018 29.6999C7.6965 28.5625 3.43753 24.3035 2.30014 18.8982L0.343002 19.31C1.64365 25.4912 6.5088 30.3564 12.69 31.657L13.1018 29.6999ZM2.30014 18.8982C2.10356 17.964 2 16.9946 2 16H3.57628e-07C3.57628e-07 17.1338 0.118096 18.2412 0.343002 19.31L2.30014 18.8982ZM3.03367 10.7099C4.76708 6.4659 8.52433 3.26334 13.1018 2.30014L12.69 0.343003C7.453 1.44497 3.16257 5.10491 1.18215 9.95368L3.03367 10.7099ZM13.1018 2.30014C14.036 2.10356 15.0054 2 16 2V4.76799e-08C14.8662 4.76799e-08 13.7588 0.118096 12.69 0.343003L13.1018 2.30014ZM16 2C16.9946 2 17.964 2.10356 18.8982 2.30015L19.31 0.343004C18.2412 0.118096 17.1338 4.76799e-08 16 4.76799e-08V2ZM18.8982 2.30015C23.477 3.26363 27.2352 6.46783 28.9679 10.7137L30.8196 9.95805C28.84 5.10711 24.5486 1.4453 19.31 0.343004L18.8982 2.30015ZM18.1514 1.62555C18.5657 2.92377 20.1006 7.92128 20.7301 12.5163L22.7116 12.2449C22.0573 7.46851 20.4765 2.33303 20.0568 1.0176L18.1514 1.62555ZM20.7301 12.5163C20.8989 13.7483 21 14.9341 21 16L23 16C23 14.8157 22.8883 13.5347 22.7116 12.2449L20.7301 12.5163ZM29.481 9.42896C27.8328 9.92887 24.7358 10.8073 21.5394 11.3972L21.9023 13.364C25.2041 12.7546 28.3817 11.8524 30.0615 11.3429L29.481 9.42896ZM21.5394 11.3972C19.6008 11.755 17.6603 12 16 12L16 14C17.833 14 19.9077 13.7321 21.9023 13.364L21.5394 11.3972ZM21 16C21 17.5786 20.7784 19.4116 20.4485 21.2569L22.4173 21.6089C22.7574 19.7065 23 17.7444 23 16L21 16ZM20.4485 21.2569C19.7253 25.3019 18.5107 29.2484 18.1514 30.3744L20.0568 30.9824C20.4245 29.8301 21.6707 25.7846 22.4173 21.6089L20.4485 21.2569ZM30.3744 18.1514C29.2484 18.5107 25.3019 19.7253 21.2569 20.4485L21.6089 22.4173C25.7846 21.6707 29.8301 20.4245 30.9824 20.0568L30.3744 18.1514ZM21.2569 20.4485C19.4116 20.7784 17.5786 21 16 21L16 23C17.7444 23 19.7065 22.7574 21.6089 22.4173L21.2569 20.4485ZM16 21C14.4214 21 12.5884 20.7784 10.7431 20.4485L10.3911 22.4173C12.2935 22.7574 14.2556 23 16 23L16 21ZM10.7431 20.4485C6.69813 19.7253 2.7516 18.5107 1.62555 18.1514L1.01759 20.0568C2.16988 20.4245 6.21543 21.6707 10.3911 22.4173L10.7431 20.4485ZM9 16C9 17.7444 9.24256 19.7065 9.58271 21.6089L11.5515 21.2569C11.2216 19.4116 11 17.5786 11 16L9 16ZM9.58271 21.6089C10.3293 25.7846 11.5755 29.8301 11.9432 30.9824L13.8486 30.3744C13.4893 29.2484 12.2747 25.3019 11.5515 21.2569L9.58271 21.6089ZM11.9432 1.01759C11.5235 2.33303 9.94274 7.46851 9.28841 12.2449L11.2699 12.5163C11.8994 7.92127 13.4343 2.92376 13.8486 1.62555L11.9432 1.01759ZM9.28841 12.2449C9.1117 13.5347 9 14.8157 9 16L11 16C11 14.9341 11.1011 13.7483 11.2699 12.5163L9.28841 12.2449ZM16 12C14.3397 12 12.3992 11.755 10.4606 11.3972L10.0977 13.364C12.0923 13.7321 14.167 14 16 14L16 12ZM10.4606 11.3972C7.26307 10.8071 4.16498 9.92824 2.51722 9.42843L1.93668 11.3423C3.61603 11.8517 6.79468 12.7544 10.0977 13.364L10.4606 11.3972ZM29.4329 9.4484C29.4462 9.4415 29.4629 9.43445 29.481 9.42896L30.0615 11.3429C30.1649 11.3115 30.2622 11.2714 30.3546 11.2234L29.4329 9.4484ZM1.58619 11.1849C1.69399 11.2508 1.81083 11.3041 1.93668 11.3423L2.51722 9.42843C2.55876 9.44103 2.597 9.45872 2.62964 9.47868L1.58619 11.1849Z" fill="white"/>
</svg>
