<svg width="30" height="30" viewBox="0 0 30 30" fill="none" xmlns="http://www.w3.org/2000/svg">
<path d="M28.5 14.25C28.5052 16.2298 28.0426 18.1829 27.15 19.95C26.0916 22.0677 24.4646 23.8488 22.4512 25.094C20.4377 26.3391 18.1174 26.9991 15.75 27C13.7702 27.0052 11.8172 26.5426 10.05 25.65L1.5 28.5L4.35 19.95C3.4574 18.1829 2.99484 16.2298 3 14.25C3.00092 11.8827 3.66092 9.56232 4.90608 7.54887C6.15124 5.53542 7.93238 3.90839 10.05 2.85004C11.8172 1.95744 13.7702 1.49488 15.75 1.50004H16.5C19.6265 1.67253 22.5796 2.99218 24.7937 5.20633C27.0079 7.42048 28.3275 10.3735 28.5 13.5V14.25Z" stroke="white" stroke-width="3" stroke-linecap="round" stroke-linejoin="round"/>
</svg>
