<svg width="30" height="34" viewBox="0 0 30 34" fill="none" xmlns="http://www.w3.org/2000/svg">
<path d="M15 3.75C14.4477 3.75 14 4.19772 14 4.75C14 5.30228 14.4477 5.75 15 5.75V3.75ZM29 5.75C29.5523 5.75 30 5.30229 30 4.75C30 4.19772 29.5523 3.75 29 3.75V5.75ZM15 28.25C14.4477 28.25 14 28.6977 14 29.25C14 29.8023 14.4477 30.25 15 30.25V28.25ZM29 30.25C29.5523 30.25 30 29.8023 30 29.25C30 28.6977 29.5523 28.25 29 28.25V30.25ZM15 18C15.5523 18 16 17.5523 16 17C16 16.4477 15.5523 16 15 16V18ZM1 16C0.447715 16 5.96046e-08 16.4477 0 17C-1.19209e-07 17.5523 0.447715 18 1 18L1 16ZM15 5.75L29 5.75V3.75L15 3.75V5.75ZM15 30.25H29V28.25H15V30.25ZM15 16L1 16L1 18L15 18V16ZM0 4.75C0 7.23528 2.01472 9.25 4.5 9.25V7.25C3.11929 7.25 2 6.13071 2 4.75H0ZM4.5 9.25C6.98528 9.25 9 7.23528 9 4.75H7C7 6.13071 5.88071 7.25 4.5 7.25V9.25ZM9 4.75C9 2.26472 6.98528 0.25 4.5 0.25V2.25C5.88071 2.25 7 3.36929 7 4.75H9ZM4.5 0.25C2.01472 0.25 0 2.26472 0 4.75H2C2 3.36929 3.11929 2.25 4.5 2.25V0.25ZM0 29.25C0 31.7353 2.01472 33.75 4.5 33.75V31.75C3.11929 31.75 2 30.6307 2 29.25H0ZM4.5 33.75C6.98528 33.75 9 31.7353 9 29.25H7C7 30.6307 5.88071 31.75 4.5 31.75V33.75ZM9 29.25C9 26.7647 6.98528 24.75 4.5 24.75V26.75C5.88071 26.75 7 27.8693 7 29.25H9ZM4.5 24.75C2.01472 24.75 0 26.7647 0 29.25H2C2 27.8693 3.11929 26.75 4.5 26.75V24.75ZM30 17C30 14.5147 27.9853 12.5 25.5 12.5V14.5C26.8807 14.5 28 15.6193 28 17H30ZM25.5 12.5C23.0147 12.5 21 14.5147 21 17H23C23 15.6193 24.1193 14.5 25.5 14.5V12.5ZM21 17C21 19.4853 23.0147 21.5 25.5 21.5V19.5C24.1193 19.5 23 18.3807 23 17H21ZM25.5 21.5C27.9853 21.5 30 19.4853 30 17H28C28 18.3807 26.8807 19.5 25.5 19.5V21.5Z" fill="white"/>
</svg>
