<svg width="27" height="28" viewBox="0 0 27 28" fill="none" xmlns="http://www.w3.org/2000/svg">
<path d="M1.15094 5.91314C1.15094 4.46032 1.15094 3.73391 1.38505 3.1609C1.69719 2.39689 2.29591 1.78989 3.04948 1.47343C3.61467 1.23608 4.33116 1.23608 5.76415 1.23608C7.19714 1.23608 7.91364 1.23608 8.47882 1.47343C9.2324 1.78989 9.83111 2.39689 10.1433 3.1609C10.3774 3.73391 10.3774 4.46032 10.3774 5.91314C10.3774 7.36597 10.3774 8.09238 10.1433 8.66539C9.83111 9.42939 9.2324 10.0364 8.47882 10.3529C7.91364 10.5902 7.19714 10.5902 5.76415 10.5902C4.33116 10.5902 3.61467 10.5902 3.04948 10.3529C2.29591 10.0364 1.69719 9.42939 1.38505 8.66539C1.15094 8.09238 1.15094 7.36597 1.15094 5.91314Z" stroke="white" stroke-width="2"/>
<path d="M16.5283 5.91314C16.5283 4.46032 16.5283 3.73391 16.7624 3.1609C17.0746 2.39689 17.6733 1.78989 18.4268 1.47343C18.992 1.23608 19.7085 1.23608 21.1415 1.23608C22.5745 1.23608 23.291 1.23608 23.8562 1.47343C24.6098 1.78989 25.2085 2.39689 25.5206 3.1609C25.7547 3.73391 25.7547 4.46032 25.7547 5.91314C25.7547 7.36597 25.7547 8.09238 25.5206 8.66539C25.2085 9.42939 24.6098 10.0364 23.8562 10.3529C23.291 10.5902 22.5745 10.5902 21.1415 10.5902C19.7085 10.5902 18.992 10.5902 18.4268 10.3529C17.6733 10.0364 17.0746 9.42939 16.7624 8.66539C16.5283 8.09238 16.5283 7.36597 16.5283 5.91314Z" stroke="white" stroke-width="2"/>
<path d="M1.15094 21.5033C1.15094 20.0505 1.15094 19.3241 1.38505 18.7511C1.69719 17.9871 2.29591 17.3801 3.04948 17.0636C3.61467 16.8263 4.33116 16.8263 5.76415 16.8263C7.19714 16.8263 7.91364 16.8263 8.47882 17.0636C9.2324 17.3801 9.83111 17.9871 10.1433 18.7511C10.3774 19.3241 10.3774 20.0505 10.3774 21.5033C10.3774 22.9562 10.3774 23.6826 10.1433 24.2556C9.83111 25.0196 9.2324 25.6266 8.47882 25.9431C7.91364 26.1804 7.19714 26.1804 5.76415 26.1804C4.33116 26.1804 3.61467 26.1804 3.04948 25.9431C2.29591 25.6266 1.69719 25.0196 1.38505 24.2556C1.15094 23.6826 1.15094 22.9562 1.15094 21.5033Z" stroke="white" stroke-width="2"/>
<path d="M16.5283 21.5033C16.5283 20.0505 16.5283 19.3241 16.7624 18.7511C17.0746 17.9871 17.6733 17.3801 18.4268 17.0636C18.992 16.8263 19.7085 16.8263 21.1415 16.8263C22.5745 16.8263 23.291 16.8263 23.8562 17.0636C24.6098 17.3801 25.2085 17.9871 25.5206 18.7511C25.7547 19.3241 25.7547 20.0505 25.7547 21.5033C25.7547 22.9562 25.7547 23.6826 25.5206 24.2556C25.2085 25.0196 24.6098 25.6266 23.8562 25.9431C23.291 26.1804 22.5745 26.1804 21.1415 26.1804C19.7085 26.1804 18.992 26.1804 18.4268 25.9431C17.6733 25.6266 17.0746 25.0196 16.7624 24.2556C16.5283 23.6826 16.5283 22.9562 16.5283 21.5033Z" stroke="white" stroke-width="2"/>
</svg>
