<svg width="30" height="30" viewBox="0 0 30 30" fill="none" xmlns="http://www.w3.org/2000/svg">
<path d="M7.5 19.2857L9.6905 14.8201C10.7969 12.5646 14.0488 12.6748 15 15C15.9512 17.3252 19.2031 17.4354 20.3095 15.1799L22.5 10.7143M15 28.5C9.3754 28.5 6.5631 28.5 4.59161 27.0676C3.9549 26.605 3.39497 26.0451 2.93237 25.4084C1.5 23.4369 1.5 20.6246 1.5 15C1.5 9.3754 1.5 6.5631 2.93237 4.59161C3.39497 3.9549 3.9549 3.39497 4.59161 2.93237C6.5631 1.5 9.3754 1.5 15 1.5C20.6246 1.5 23.4369 1.5 25.4084 2.93237C26.0451 3.39497 26.605 3.9549 27.0676 4.59161C28.5 6.5631 28.5 9.3754 28.5 15C28.5 20.6246 28.5 23.4369 27.0676 25.4084C26.605 26.0451 26.0451 26.605 25.4084 27.0676C23.4369 28.5 20.6246 28.5 15 28.5Z" stroke="white" stroke-width="2" stroke-linecap="round"/>
</svg>
