<svg width="26" height="27" viewBox="0 0 26 27" fill="none" xmlns="http://www.w3.org/2000/svg">
<path d="M9.29677 23.5298L8.93287 22.5984L9.29677 23.5298ZM3.21217 24.6982L2.71217 25.5642L2.71218 25.5642L3.21217 24.6982ZM1.18175 18.8446L0.193147 18.9951L1.18175 18.8446ZM1.91719 14.9412L2.78322 15.4412L1.91719 14.9412ZM1.04097 16.7971L0.0582596 16.6119L0.0582596 16.6119L1.04097 16.7971ZM12.3095 20.9412L13.1755 21.4412L12.3095 20.9412ZM11.1404 22.628L11.7921 23.3864L11.7921 23.3864L11.1404 22.628ZM7.61485 5.07254L6.74882 4.57254L7.61485 5.07254ZM24.1148 26.3764C24.6671 26.3764 25.1148 25.9287 25.1148 25.3764C25.1148 24.8241 24.6671 24.3764 24.1148 24.3764V26.3764ZM15.1148 24.3764C14.5626 24.3764 14.1148 24.8241 14.1148 25.3764C14.1148 25.9287 14.5626 26.3764 15.1148 26.3764V24.3764ZM17.1411 10.5725L11.4435 20.4412L13.1755 21.4412L18.8732 11.5725L17.1411 10.5725ZM2.78322 15.4412L8.48088 5.57254L6.74882 4.57254L1.05117 14.4412L2.78322 15.4412ZM8.93287 22.5984C7.2918 23.2395 6.16179 23.6784 5.28625 23.8829C4.43686 24.0814 4.02047 24.0102 3.71217 23.8322L2.71218 25.5642C3.65258 26.1072 4.66652 26.0816 5.74127 25.8305C6.78988 25.5855 8.07782 25.0796 9.66068 24.4612L8.93287 22.5984ZM0.193147 18.9951C0.449018 20.6752 0.654926 22.0435 0.967061 23.0741C1.28698 24.1304 1.77178 25.0213 2.71217 25.5642L3.71218 23.8322C3.40388 23.6542 3.13404 23.3292 2.8812 22.4943C2.62058 21.6338 2.43563 20.4358 2.17035 18.694L0.193147 18.9951ZM1.05117 14.4412C0.564175 15.2847 0.191672 15.9038 0.0582596 16.6119L2.02368 16.9822C2.07946 16.6862 2.22804 16.4028 2.78322 15.4412L1.05117 14.4412ZM2.17035 18.694C2.00316 17.5963 1.9679 17.2783 2.02368 16.9822L0.0582596 16.6119C-0.0751525 17.32 0.0464968 18.0323 0.193147 18.9951L2.17035 18.694ZM11.4435 20.4412C10.8883 21.4028 10.7172 21.6731 10.4887 21.8695L11.7921 23.3864C12.3386 22.9168 12.6885 22.2847 13.1755 21.4412L11.4435 20.4412ZM9.66068 24.4612C10.5679 24.1068 11.2455 23.856 11.7921 23.3864L10.4887 21.8695C10.2601 22.0658 9.96709 22.1943 8.93287 22.5984L9.66068 24.4612ZM15.311 3.74242C16.5602 4.46366 17.409 4.95613 17.9959 5.4091C18.5599 5.84433 18.7595 6.15279 18.8409 6.45683L20.7728 5.93919C20.5326 5.04293 19.959 4.39768 19.2178 3.82574C18.4996 3.27153 17.5113 2.70334 16.311 2.01036L15.311 3.74242ZM18.8732 11.5725C19.5662 10.3723 20.138 9.38602 20.4829 8.54697C20.8388 7.68108 21.0129 6.83545 20.7728 5.93919L18.8409 6.45683C18.9224 6.76087 18.9038 7.12776 18.633 7.78668C18.3512 8.47245 17.8624 9.32332 17.1411 10.5725L18.8732 11.5725ZM16.311 2.01036C15.1107 1.31739 14.1245 0.745525 13.2854 0.400675C12.4195 0.0447914 11.5739 -0.12939 10.6777 0.110763L11.1953 2.04261C11.4993 1.96115 11.8662 1.97971 12.5251 2.25053C13.2109 2.53238 14.0618 3.02117 15.311 3.74242L16.311 2.01036ZM8.48088 5.57254C9.20212 4.32331 9.69459 3.47458 10.1476 2.8876C10.5828 2.3236 10.8913 2.12408 11.1953 2.04261L10.6777 0.110763C9.78139 0.350915 9.13614 0.924574 8.5642 1.66573C8.00999 2.3839 7.4418 3.37228 6.74882 4.57254L8.48088 5.57254ZM18.5072 10.2065L8.11485 4.20652L7.11485 5.93857L17.5072 11.9386L18.5072 10.2065ZM24.1148 24.3764H15.1148V26.3764H24.1148V24.3764Z" fill="white"/>
</svg>
