<svg width="33" height="36" viewBox="0 0 33 36" fill="none" xmlns="http://www.w3.org/2000/svg">
<path d="M17.4528 12.4722C17.4528 11.92 17.0051 11.4722 16.4528 11.4722C15.9005 11.4722 15.4528 11.92 15.4528 12.4722L17.4528 12.4722ZM19.9429 23.4689C20.4196 23.7479 21.0321 23.5877 21.3111 23.111C21.5901 22.6344 21.4299 22.0218 20.9532 21.7428L19.9429 23.4689ZM1.98328 4.29024C1.55435 4.63813 1.48865 5.26788 1.83655 5.69682C2.18445 6.12575 2.8142 6.19145 3.24313 5.84355L1.98328 4.29024ZM7.08747 2.72551C7.51641 2.37761 7.5821 1.74786 7.2342 1.31893C6.88631 0.889992 6.25656 0.824299 5.82762 1.1722L7.08747 2.72551ZM29.6625 5.84355C30.0915 6.19145 30.7212 6.12575 31.0691 5.69682C31.417 5.26788 31.3513 4.63813 30.9224 4.29024L29.6625 5.84355ZM27.078 1.1722C26.6491 0.824299 26.0194 0.889992 25.6715 1.31893C25.3236 1.74786 25.3893 2.37761 25.8182 2.72551L27.078 1.1722ZM19.5387 22.0736L19.0336 22.9366L19.5387 22.0736ZM16.8659 20.0305L15.9984 20.5279L16.8659 20.0305ZM15.4528 12.4722L15.4528 16.6917L17.4528 16.6917L17.4528 12.4722L15.4528 12.4722ZM20.9532 21.7428L20.0439 21.2106L19.0336 22.9366L19.9429 23.4689L20.9532 21.7428ZM30.8302 18.7083C30.8302 26.7793 24.3803 33.2985 16.4528 33.2985V35.2985C25.5107 35.2985 32.8302 27.8578 32.8302 18.7083H30.8302ZM16.4528 33.2985C8.52535 33.2985 2.07547 26.7793 2.07547 18.7083H0.07547C0.07547 27.8578 7.39495 35.2985 16.4528 35.2985V33.2985ZM2.07547 18.7083C2.07547 10.6374 8.52535 4.11812 16.4528 4.11812V2.11812C7.39495 2.11812 0.07547 9.55881 0.07547 18.7083H2.07547ZM16.4528 4.11812C24.3803 4.11812 30.8302 10.6374 30.8302 18.7083H32.8302C32.8302 9.55881 25.5107 2.11812 16.4528 2.11812V4.11812ZM3.24313 5.84355L7.08747 2.72551L5.82762 1.1722L1.98328 4.29024L3.24313 5.84355ZM30.9224 4.29024L27.078 1.1722L25.8182 2.72551L29.6625 5.84355L30.9224 4.29024ZM15.4528 16.6917C15.4528 17.5451 15.4517 18.2567 15.5092 18.8431C15.5689 19.4513 15.697 20.0022 15.9984 20.5279L17.7335 19.5331C17.6218 19.3383 17.5433 19.0925 17.4997 18.6479C17.4539 18.1814 17.4528 17.5838 17.4528 16.6917L15.4528 16.6917ZM20.0439 21.2106C19.274 20.7599 18.7588 20.4571 18.3793 20.1819C18.0176 19.9197 17.8451 19.7278 17.7335 19.5331L15.9984 20.5279C16.2998 21.0536 16.7106 21.4424 17.2053 21.8011C17.6824 22.147 18.297 22.5055 19.0336 22.9366L20.0439 21.2106Z" fill="white"/>
</svg>
