<svg width="35" height="34" viewBox="0 0 35 34" fill="none" xmlns="http://www.w3.org/2000/svg">
<path d="M12.1457 5.02706C13.816 -0.184964 21.089 -0.184964 22.7594 5.02706C23.5064 7.35795 25.6488 8.93608 28.0662 8.93608C33.4716 8.93608 35.7191 15.9488 31.346 19.17C29.3903 20.6106 28.572 23.164 29.319 25.4949C30.9894 30.707 25.1054 35.0411 20.7323 31.8199C18.7766 30.3793 16.1284 30.3793 14.1727 31.8199C9.79961 35.0411 3.91567 30.707 5.58604 25.4949C6.33305 23.164 5.51471 20.6106 3.559 19.17C-0.814081 15.9488 1.43339 8.93608 6.83882 8.93608C9.2562 8.93608 11.3987 7.35795 12.1457 5.02706Z" stroke="white" stroke-width="2"/>
</svg>
