<svg width="36" height="31" viewBox="0 0 36 31" fill="none" xmlns="http://www.w3.org/2000/svg">
<path d="M28.8182 1.63647H7.18182C3.76769 1.63647 1 4.40417 1 7.81829V23.2728C1 26.687 3.76769 29.4547 7.18182 29.4547H28.8182C32.2323 29.4547 35 26.687 35 23.2728V7.81829C35 4.40417 32.2323 1.63647 28.8182 1.63647Z" stroke="white" stroke-width="1.88889" stroke-linecap="round" stroke-linejoin="round"/>
<path d="M13.3636 7.81824H10.2727C8.56567 7.81824 7.18182 9.20208 7.18182 10.9091V14.0001C7.18182 15.7071 8.56567 17.091 10.2727 17.091H13.3636C15.0707 17.091 16.4545 15.7071 16.4545 14.0001V10.9091C16.4545 9.20208 15.0707 7.81824 13.3636 7.81824Z" stroke="white" stroke-width="1.88889" stroke-linecap="round" stroke-linejoin="round"/>
<path d="M22.6364 9.36365H28.8182" stroke="white" stroke-width="1.88889" stroke-linecap="round" stroke-linejoin="round"/>
<path d="M22.6364 15.5454H28.8182" stroke="white" stroke-width="1.88889" stroke-linecap="round" stroke-linejoin="round"/>
<path d="M7.18182 23.2726H28.8182" stroke="white" stroke-width="1.88889" stroke-linecap="round" stroke-linejoin="round"/>
</svg>
