<svg width="31" height="28" viewBox="0 0 31 28" fill="none" xmlns="http://www.w3.org/2000/svg">
<path d="M1.625 10.4166C1.625 8.28803 3.35057 6.56246 5.47917 6.56246C7.60776 6.56246 9.33333 8.28803 9.33333 10.4166V22.75C9.33333 24.8786 7.60776 26.6041 5.47917 26.6041C3.35057 26.6041 1.625 24.8786 1.625 22.75V10.4166Z" stroke="white" stroke-width="2"/>
<path d="M14.8454 2.2303L11.4067 7.81826C10.4834 9.31855 10.0218 10.0687 9.74266 10.8908C9.65751 11.1415 9.58534 11.3965 9.52644 11.6547C9.33333 12.5011 9.33333 13.3819 9.33333 15.1435V20.4375C9.33333 23.8432 12.0942 26.6041 15.5 26.6041H19.986C22.9057 26.6041 25.5748 24.9545 26.8805 22.3431L28.6512 18.8018C30.4003 15.3035 27.8565 11.1875 23.9452 11.1875H22.8819C20.2164 11.1875 18.178 8.81155 18.5833 6.17704L18.958 3.74155C19.1663 2.38764 18.1188 1.16663 16.7489 1.16663C15.9728 1.16663 15.2522 1.56928 14.8454 2.2303Z" stroke="white" stroke-width="2"/>
</svg>
