<svg width="29" height="29" viewBox="0 0 29 29" fill="none" xmlns="http://www.w3.org/2000/svg">
<path d="M24.4848 6.45041L22.8938 4.85942C22.0151 3.98074 20.5905 3.98074 19.7118 4.85942L2.21091 22.3603C1.33223 23.239 1.33223 24.6636 2.21091 25.5423L3.8019 27.1333C4.68058 28.012 6.1052 28.012 6.98388 27.1333L24.4848 9.63239C25.3635 8.75371 25.3635 7.32909 24.4848 6.45041Z" stroke="white" stroke-width="2" stroke-linecap="round" stroke-linejoin="round"/>
<path d="M14.9426 9.64209L19.7155 14.4151L6.98762 27.143C6.56566 27.5649 5.99336 27.802 5.39663 27.802C4.79989 27.802 4.22759 27.5649 3.80564 27.143L2.21465 25.552C1.79269 25.13 1.55564 24.5577 1.55564 23.961C1.55564 23.3643 1.79269 22.792 2.21465 22.37L14.9426 9.64209V9.64209Z" stroke="white" stroke-width="2" stroke-linecap="round" stroke-linejoin="round"/>
<path fill-rule="evenodd" clip-rule="evenodd" d="M25 17.125C25 16.7108 24.6642 16.375 24.25 16.375C23.8358 16.375 23.5 16.7108 23.5 17.125C23.5 18.5747 22.3247 19.75 20.875 19.75C20.4608 19.75 20.125 20.0858 20.125 20.5C20.125 20.9142 20.4608 21.25 20.875 21.25C22.3247 21.25 23.5 22.4253 23.5 23.875C23.5 24.2892 23.8358 24.625 24.25 24.625C24.6642 24.625 25 24.2892 25 23.875C25 22.4253 26.1753 21.25 27.625 21.25C28.0392 21.25 28.375 20.9142 28.375 20.5C28.375 20.0858 28.0392 19.75 27.625 19.75C26.1753 19.75 25 18.5747 25 17.125ZM25.2527 20.5C24.8636 20.226 24.524 19.8864 24.25 19.4973C23.976 19.8864 23.6364 20.226 23.2473 20.5C23.6364 20.774 23.976 21.1136 24.25 21.5027C24.524 21.1136 24.8636 20.774 25.2527 20.5Z" fill="white"/>
<path fill-rule="evenodd" clip-rule="evenodd" d="M9.25006 1.375C9.25006 0.960786 8.91427 0.625 8.50006 0.625C8.08585 0.625 7.75006 0.960786 7.75006 1.375C7.75006 2.82475 6.57481 4 5.12506 4C4.71085 4 4.37506 4.33579 4.37506 4.75C4.37506 5.16421 4.71085 5.5 5.12506 5.5C6.57481 5.5 7.75006 6.67525 7.75006 8.125C7.75006 8.53921 8.08585 8.875 8.50006 8.875C8.91427 8.875 9.25006 8.53921 9.25006 8.125C9.25006 6.67525 10.4253 5.5 11.8751 5.5C12.2893 5.5 12.6251 5.16421 12.6251 4.75C12.6251 4.72411 12.6237 4.69853 12.6212 4.67332C12.5828 4.29513 12.2634 4 11.8751 4C10.4253 4 9.25006 2.82475 9.25006 1.375ZM9.50275 4.75C9.11365 4.476 8.77406 4.13641 8.50006 3.74731C8.22606 4.13641 7.88647 4.476 7.49737 4.75C7.88647 5.024 8.22606 5.36359 8.50006 5.75269C8.77406 5.36359 9.11365 5.024 9.50275 4.75Z" fill="white"/>
</svg>
