<svg width="16" height="13" viewBox="0 0 16 13" fill="none" xmlns="http://www.w3.org/2000/svg">
<path d="M14.9091 7.09308L9.77697 12.2252C9.61992 12.3822 9.40691 12.4705 9.18481 12.4705C8.9627 12.4705 8.74969 12.3822 8.59264 12.2252C8.43559 12.0681 8.34736 11.8551 8.34736 11.633C8.34736 11.4109 8.43559 11.1979 8.59264 11.0408L12.2937 7.33982L1.68406 7.33982C1.46202 7.33837 1.24948 7.24952 1.09247 7.09251C0.935458 6.9355 0.846609 6.72296 0.84516 6.50092C0.844969 6.3907 0.866537 6.28153 0.908628 6.17966C0.950719 6.07779 1.0125 5.98524 1.09044 5.9073C1.16838 5.82936 1.26093 5.76758 1.3628 5.72549C1.46467 5.6834 1.57384 5.66183 1.68406 5.66202L12.2937 5.66202L8.59264 1.96099C8.43559 1.80394 8.34736 1.59093 8.34736 1.36883C8.34736 1.14672 8.43559 0.933716 8.59264 0.776665C8.74969 0.619613 8.9627 0.531382 9.18481 0.531382C9.40691 0.531382 9.61992 0.619613 9.77697 0.776665L14.9091 5.90875C15.0661 6.06581 15.1543 6.27881 15.1543 6.50092C15.1543 6.72302 15.0661 6.93603 14.9091 7.09308Z" fill="white"/>
</svg>
