<svg width="25" height="25" viewBox="0 0 25 25" fill="none" xmlns="http://www.w3.org/2000/svg">
<path d="M7.92798 22.928H4.92798C4.39755 22.928 3.88884 22.7173 3.51376 22.3422C3.13869 21.9671 2.92798 21.4584 2.92798 20.928V13.928C2.92798 13.3975 3.13869 12.8888 3.51376 12.5138C3.88884 12.1387 4.39755 11.928 4.92798 11.928H7.92798M14.928 9.92798V5.92798C14.928 5.13233 14.6119 4.36927 14.0493 3.80666C13.4867 3.24405 12.7236 2.92798 11.928 2.92798L7.92798 11.928V22.928H19.208C19.6903 22.9334 20.1584 22.7644 20.5259 22.452C20.8934 22.1396 21.1357 21.7049 21.208 21.228L22.588 12.228C22.6315 11.9413 22.6122 11.6487 22.5313 11.3702C22.4505 11.0918 22.3101 10.8343 22.1198 10.6155C21.9296 10.3967 21.6941 10.2219 21.4296 10.1032C21.165 9.98448 20.8779 9.9247 20.588 9.92798H14.928Z" stroke="white" stroke-width="2" stroke-linecap="round" stroke-linejoin="round"/>
</svg>
