<svg width="25" height="25" viewBox="0 0 25 25" fill="none" xmlns="http://www.w3.org/2000/svg">
<path d="M2.92798 3.92798H8.92798C9.98884 3.92798 11.0063 4.34941 11.7564 5.09955C12.5066 5.8497 12.928 6.86711 12.928 7.92798V21.928C12.928 21.1323 12.6119 20.3693 12.0493 19.8067C11.4867 19.244 10.7236 18.928 9.92798 18.928H2.92798V3.92798Z" stroke="white" stroke-width="2" stroke-linecap="round" stroke-linejoin="round"/>
<path d="M22.928 3.92798H16.928C15.8671 3.92798 14.8497 4.34941 14.0996 5.09955C13.3494 5.8497 12.928 6.86711 12.928 7.92798V21.928C12.928 21.1323 13.244 20.3693 13.8067 19.8067C14.3693 19.244 15.1323 18.928 15.928 18.928H22.928V3.92798Z" stroke="white" stroke-width="2" stroke-linecap="round" stroke-linejoin="round"/>
</svg>
