<svg width="28" height="28" viewBox="0 0 28 28" fill="none" xmlns="http://www.w3.org/2000/svg">
<g clip-path="url(#clip0_26_5365)">
<path d="M16.0503 17.1409C15.646 17.4089 15.1901 17.6049 14.6989 17.705V20.7887C16.0304 20.6389 17.2393 20.1214 18.2346 19.3252L16.0503 17.1409Z" fill="white"/>
<path d="M19.3258 9.62085L17.1414 11.8052C17.4095 12.2094 17.6055 12.6653 17.7056 13.1565H20.7893C20.6395 11.825 20.122 10.6162 19.3258 9.62085Z" fill="white"/>
<path d="M10.1507 14.699H7.06694C7.21675 16.0305 7.73424 17.2393 8.53048 18.2347L10.7148 16.0503C10.4468 15.6461 10.2508 15.1902 10.1507 14.699Z" fill="white"/>
<path d="M17.7056 14.699C17.6055 15.1902 17.4095 15.6461 17.1414 16.0503L19.3258 18.2347C20.122 17.2393 20.6395 16.0305 20.7893 14.699H17.7056Z" fill="white"/>
<path d="M11.8065 17.1409L9.62218 19.3252C10.6175 20.1214 11.8264 20.6389 13.1579 20.7887V17.705C12.6666 17.6049 12.2108 17.4089 11.8065 17.1409Z" fill="white"/>
<path d="M8.53048 9.62085C7.73424 10.6162 7.21675 11.825 7.06694 13.1565H10.1507C10.2508 12.6653 10.4468 12.2094 10.7148 11.8052L8.53048 9.62085Z" fill="white"/>
<path d="M13.928 11.6152C12.6527 11.6152 11.6152 12.6527 11.6152 13.928C11.6152 15.2032 12.6527 16.2407 13.928 16.2407C15.2032 16.2407 16.2407 15.2032 16.2407 13.928C16.2407 12.6527 15.2032 11.6152 13.928 11.6152Z" fill="white"/>
<path d="M9.62228 8.53117L11.8066 10.7155C12.2109 10.4475 12.6667 10.2515 13.158 10.1514V7.06763C11.8265 7.21744 10.6176 7.73492 9.62228 8.53117Z" fill="white"/>
<path d="M14.6989 7.06787V10.1516C15.1901 10.2517 15.646 10.4477 16.0503 10.7157L18.2346 8.53141C17.2393 7.73517 16.0304 7.21768 14.6989 7.06787Z" fill="white"/>
<path d="M22.3691 14.699C22.2095 16.4589 21.5127 18.0651 20.4407 19.3505L23.7099 22.6197C25.6094 20.4844 26.9073 17.7312 27.0849 14.699H22.3691Z" fill="white"/>
<path d="M19.3504 20.4402C18.065 21.5122 16.4587 22.209 14.6989 22.3686V27.0845C17.7311 26.9068 20.4843 25.6089 22.6196 23.7094L19.3504 20.4402Z" fill="white"/>
<path d="M8.50448 20.4399L5.23528 23.7092C7.37058 25.6087 10.1237 26.9066 13.156 27.0842V22.3683C11.3961 22.2088 9.78984 21.512 8.50448 20.4399Z" fill="white"/>
<path d="M23.7099 5.23682L20.4407 8.50602C21.5127 9.79138 22.2095 11.3977 22.3691 13.1575H27.0849C26.9073 10.1253 25.6094 7.37212 23.7099 5.23682Z" fill="white"/>
<path d="M14.6989 0.77124V5.48713C16.4588 5.64671 18.065 6.3435 19.3504 7.41553L22.6196 4.14632C20.4843 2.24681 17.7311 0.948908 14.6989 0.77124Z" fill="white"/>
<path d="M5.23528 4.14632L8.50448 7.41553C9.78984 6.3435 11.3962 5.64671 13.156 5.48713V0.77124C10.1237 0.948908 7.37058 2.24681 5.23528 4.14632Z" fill="white"/>
<path d="M5.48704 14.699H0.771149C0.948817 17.7312 2.24671 20.4844 4.14623 22.6197L7.41543 19.3505C6.34341 18.0651 5.64662 16.4589 5.48704 14.699Z" fill="white"/>
<path d="M4.14623 5.23608C2.24671 7.37139 0.948817 10.1246 0.771149 13.1568H5.48704C5.64662 11.3969 6.34341 9.79065 7.41543 8.50529L4.14623 5.23608Z" fill="white"/>
</g>
<defs>
<clipPath id="clip0_26_5365">
<rect width="26.3136" height="26.3136" fill="white" transform="translate(0.771194 0.77124)"/>
</clipPath>
</defs>
</svg>
