<svg width="25" height="25" viewBox="0 0 25 25" fill="none" xmlns="http://www.w3.org/2000/svg">
<path d="M20.928 9.92798H11.928C10.8234 9.92798 9.92798 10.8234 9.92798 11.928V20.928C9.92798 22.0325 10.8234 22.928 11.928 22.928H20.928C22.0325 22.928 22.928 22.0325 22.928 20.928V11.928C22.928 10.8234 22.0325 9.92798 20.928 9.92798Z" stroke="white" stroke-width="2" stroke-linecap="round" stroke-linejoin="round"/>
<path d="M5.92798 15.928H4.92798C4.39755 15.928 3.88884 15.7173 3.51376 15.3422C3.13869 14.9671 2.92798 14.4584 2.92798 13.928V4.92798C2.92798 4.39755 3.13869 3.88884 3.51376 3.51376C3.88884 3.13869 4.39755 2.92798 4.92798 2.92798H13.928C14.4584 2.92798 14.9671 3.13869 15.3422 3.51376C15.7173 3.88884 15.928 4.39755 15.928 4.92798V5.92798" stroke="white" stroke-width="2" stroke-linecap="round" stroke-linejoin="round"/>
</svg>
