<svg width="25" height="25" viewBox="0 0 25 25" fill="none" xmlns="http://www.w3.org/2000/svg">
<path d="M20.928 2.78394H4.92799C3.82342 2.78394 2.92799 3.67937 2.92799 4.78394V8.78394C2.92799 9.8885 3.82342 10.7839 4.92799 10.7839H20.928C22.0326 10.7839 22.928 9.8885 22.928 8.78394V4.78394C22.928 3.67937 22.0326 2.78394 20.928 2.78394Z" stroke="white" stroke-width="2" stroke-linecap="round" stroke-linejoin="round"/>
<path d="M20.928 14.7839H4.92799C3.82342 14.7839 2.92799 15.6794 2.92799 16.7839V20.7839C2.92799 21.8885 3.82342 22.7839 4.92799 22.7839H20.928C22.0326 22.7839 22.928 21.8885 22.928 20.7839V16.7839C22.928 15.6794 22.0326 14.7839 20.928 14.7839Z" stroke="white" stroke-width="2" stroke-linecap="round" stroke-linejoin="round"/>
<path d="M6.92799 6.78394H6.93799" stroke="white" stroke-width="2" stroke-linecap="round" stroke-linejoin="round"/>
<path d="M6.92799 18.7839H6.93799" stroke="white" stroke-width="2" stroke-linecap="round" stroke-linejoin="round"/>
</svg>
