<svg width="25" height="25" viewBox="0 0 25 25" fill="none" xmlns="http://www.w3.org/2000/svg">
<path d="M4.92801 3.92798H20.928C21.4584 3.92798 21.9671 4.13869 22.3422 4.51376C22.7173 4.88884 22.928 5.39755 22.928 5.92798V11.928C22.928 14.5801 21.8744 17.1237 19.9991 18.999C18.1237 20.8744 15.5802 21.928 12.928 21.928C11.6148 21.928 10.3144 21.6693 9.10117 21.1668C7.88792 20.6642 6.78553 19.9276 5.85694 18.999C3.98158 17.1237 2.92801 14.5801 2.92801 11.928V5.92798C2.92801 5.39755 3.13872 4.88884 3.5138 4.51376C3.88887 4.13869 4.39758 3.92798 4.92801 3.92798V3.92798Z" stroke="white" stroke-width="2" stroke-linecap="round" stroke-linejoin="round"/>
<path d="M8.92801 10.928L12.928 14.928L16.928 10.928" stroke="white" stroke-width="2" stroke-linecap="round" stroke-linejoin="round"/>
</svg>
