<svg width="25" height="26" viewBox="0 0 25 26" fill="none" xmlns="http://www.w3.org/2000/svg">
<path d="M7.60579 4.96484C7.60579 4.96484 1.19871 8.95071 1.18729 8.95985L4.26634 11.7031L7.60579 4.96484Z" fill="white"/>
<path d="M12.7497 0.817067L11.7013 0.296277C11.5382 0.216152 11.3501 0.203852 11.178 0.262067C11.006 0.320282 10.8639 0.444274 10.783 0.606923L5.58427 11.0981L12.7497 0.817067Z" fill="white"/>
<path d="M5.50716 12.8116L12.4602 19.0062C12.5858 19.1177 12.7479 19.1793 12.9158 19.1793C13.0838 19.1793 13.2459 19.1177 13.3715 19.0062L17.2135 15.5823L23.0838 7.16056C23.1874 7.01156 23.2277 6.82755 23.1957 6.64891C23.1802 6.56029 23.1471 6.47567 23.0985 6.39997C23.0499 6.32428 22.9866 6.25904 22.9125 6.20806L14.8562 0.593584C14.7826 0.542054 14.6994 0.505632 14.6116 0.486422C14.5238 0.467211 14.433 0.465592 14.3446 0.481659C14.1668 0.51314 14.0085 0.613218 13.9038 0.760328L5.50716 12.8093V12.8116ZM11.9645 5.69002L12.7525 4.55912C12.8751 4.37798 13.0584 4.24661 13.2694 4.18872C13.4803 4.13084 13.705 4.15025 13.9028 4.24345C14.2579 4.41367 14.6574 4.468 15.045 4.39877C15.4326 4.32954 15.7886 4.14025 16.0627 3.85766C16.2162 3.70214 16.4201 3.60643 16.6378 3.58771C16.8555 3.569 17.0727 3.62851 17.2505 3.75555L19.1151 5.05479C19.2964 5.17739 19.428 5.36074 19.4861 5.57177C19.5441 5.78281 19.5249 6.00766 19.4319 6.20578C19.2616 6.56117 19.2075 6.96113 19.2772 7.34899C19.3469 7.73685 19.5369 8.09295 19.8202 8.36683C19.9739 8.52133 20.0684 8.72496 20.0871 8.94209C20.1059 9.15922 20.0477 9.37603 19.9228 9.5546L19.1347 10.6855C18.7868 11.098 18.5783 10.8547 18.4986 10.7997C18.4493 10.7654 18.4072 10.7218 18.3748 10.6713C18.3424 10.6208 18.3203 10.5644 18.3097 10.5053C18.299 10.4462 18.3002 10.3856 18.313 10.327C18.3258 10.2684 18.3501 10.2128 18.3844 10.1636L19.1724 9.03266C18.7557 8.62053 18.4775 8.08895 18.3764 7.51163C18.2753 6.93431 18.3563 6.33984 18.6082 5.81062L16.7293 4.50499C16.3171 4.92128 15.7857 5.19908 15.2086 5.29988C14.6316 5.40068 14.0375 5.3195 13.5086 5.06758L12.7142 6.2124C12.6803 6.26274 12.6368 6.30585 12.5862 6.33919C12.5355 6.37254 12.4787 6.39547 12.4191 6.40663C12.3595 6.4178 12.2983 6.41699 12.239 6.40424C12.1797 6.39149 12.1235 6.36707 12.0737 6.33238C12.024 6.2977 11.9816 6.25346 11.9492 6.20224C11.9167 6.15102 11.8947 6.09385 11.8846 6.03405C11.8744 5.97426 11.8763 5.91304 11.8901 5.85398C11.9038 5.79491 11.929 5.73917 11.9645 5.69002ZM9.65977 10.9546C9.72894 10.8553 9.83463 10.7876 9.95366 10.7662C10.0727 10.7448 10.1954 10.7715 10.2948 10.8404L10.7493 11.1579C10.8858 11.0099 11.034 10.8731 11.1924 10.749C11.2401 10.7125 11.2945 10.6858 11.3526 10.6704C11.4106 10.655 11.471 10.6512 11.5305 10.6591C11.59 10.6671 11.6474 10.6867 11.6993 10.7168C11.7512 10.7469 11.7967 10.787 11.8332 10.8346C11.8696 10.8823 11.8963 10.9367 11.9117 10.9948C11.9271 11.0528 11.931 11.1132 11.923 11.1727C11.9151 11.2322 11.8955 11.2896 11.8654 11.3415C11.8352 11.3934 11.7952 11.4389 11.7475 11.4754C11.5444 11.6348 11.3652 11.8225 11.2153 12.0327C11.2153 12.035 11.213 12.035 11.213 12.0373C11.2084 12.0418 11.2062 12.0487 11.2016 12.0532C11.119 12.1611 11.0691 12.2903 11.0577 12.4256C11.0577 12.4575 11.06 12.5466 11.229 12.6631C11.3889 12.775 11.5259 12.7294 12.0033 12.4164C12.4602 12.1149 13.1523 11.6604 13.906 12.1857C14.0858 12.2935 14.2353 12.4452 14.3404 12.6266C14.4455 12.808 14.5027 13.0131 14.5068 13.2227C14.5047 13.3891 14.4706 13.5535 14.4063 13.707L14.8768 14.0336C14.9564 14.0892 15.0163 14.1687 15.0477 14.2606C15.079 14.3526 15.0803 14.4521 15.0513 14.5448C15.0223 14.6374 14.9645 14.7185 14.8863 14.7761C14.8081 14.8337 14.7135 14.8648 14.6164 14.8651C14.523 14.8663 14.4317 14.8375 14.356 14.7828L13.8923 14.4608C13.7337 14.6265 13.5593 14.7765 13.3715 14.9085C13.2957 14.9608 13.2056 14.9887 13.1134 14.9884C13.0163 14.9882 12.9218 14.957 12.8436 14.8994C12.7654 14.8418 12.7076 14.7608 12.6786 14.6681C12.6495 14.5754 12.6508 14.4759 12.6822 14.384C12.7135 14.2921 12.7734 14.2126 12.853 14.157C13.0753 13.9976 13.2724 13.8059 13.4378 13.5882C13.5236 13.4829 13.5774 13.3553 13.5931 13.2205C13.5931 13.1862 13.5931 13.0811 13.3852 12.9349C13.1705 12.7865 12.9947 12.8573 12.5058 13.1793C12.0696 13.4671 11.4072 13.9011 10.7082 13.4146C10.5419 13.3113 10.4035 13.1688 10.3051 12.9995C10.2068 12.8303 10.1514 12.6395 10.144 12.4438C10.1425 12.2643 10.1775 12.0864 10.2468 11.9208L9.77398 11.5918C9.67441 11.5224 9.60646 11.4163 9.58505 11.2968C9.56364 11.1773 9.59051 11.0542 9.65977 10.9546Z" fill="white"/>
<path d="M24.6551 8.95354C24.6482 8.94668 23.465 8.21118 23.465 8.21118L20.153 12.9645L24.6551 8.95354Z" fill="white"/>
<path d="M11.852 19.6884L4.98123 13.5646L3.846 12.5527L0.901705 9.92819V24.6565C0.901624 24.6848 0.903916 24.7131 0.908557 24.741L6.21696 20.0082C6.2618 19.9683 6.31407 19.9376 6.37077 19.9179C6.42746 19.8983 6.48749 19.8899 6.54741 19.8934C6.60732 19.8969 6.66597 19.9122 6.71999 19.9383C6.77401 19.9645 6.82234 20.0011 6.86224 20.0459C6.90213 20.0907 6.9328 20.143 6.9525 20.1997C6.9722 20.2564 6.98054 20.3164 6.97704 20.3763C6.97354 20.4363 6.95827 20.4949 6.9321 20.5489C6.90594 20.6029 6.86939 20.6513 6.82455 20.6912L1.60523 25.3417H24.2368L19.006 20.6798C18.9157 20.5989 18.8613 20.4855 18.8547 20.3645C18.848 20.2434 18.8897 20.1247 18.9706 20.0345C19.0515 19.9442 19.1649 19.8898 19.2859 19.8831C19.4069 19.8765 19.5256 19.9182 19.6159 19.9991L24.9471 24.7479C24.9518 24.7176 24.9541 24.6871 24.954 24.6565V9.90991L13.9786 19.6884C13.6856 19.9489 13.3073 20.0927 12.9153 20.0927C12.5233 20.0927 12.1449 19.9489 11.852 19.6884Z" fill="white"/>
</svg>
