<svg width="28" height="19" viewBox="0 0 28 19" fill="none" xmlns="http://www.w3.org/2000/svg">
<path fill-rule="evenodd" clip-rule="evenodd" d="M18.8578 9.49596L13.6748 1.9006C13.4188 1.52548 13.5154 1.01386 13.8904 0.757875C14.027 0.6647 14.1884 0.614798 14.3537 0.614746H20.7629C21.0348 0.6149 21.289 0.749087 21.4424 0.973469L26.9415 9.03239C27.1326 9.31187 27.1326 9.68005 26.9415 9.95952L21.4424 18.0184C21.2892 18.243 21.0349 18.3773 20.7631 18.3772H14.3537C13.8998 18.3774 13.5316 18.0098 13.5313 17.5559C13.5312 17.3901 13.5813 17.2281 13.6749 17.0913L18.8578 9.49596ZM6.09745 9.49596L0.914524 17.0913C0.658485 17.4664 0.755053 17.9781 1.13012 18.234C1.26677 18.3273 1.4284 18.3772 1.59384 18.3772H8.0031C8.27482 18.3773 8.52895 18.243 8.68195 18.0184L14.1816 9.95952C14.3722 9.67989 14.3722 9.31202 14.1816 9.03239L8.682 0.973469C8.5288 0.749139 8.27477 0.6149 8.0031 0.614746H1.59384C1.13968 0.614592 0.771395 0.982617 0.771242 1.43672C0.771191 1.60221 0.821041 1.76389 0.914371 1.9006L6.09745 9.49596Z" fill="white"/>
</svg>
