<svg width="28" height="27" viewBox="0 0 28 27" fill="none" xmlns="http://www.w3.org/2000/svg">
<path d="M1.59343 6.24086V15.7713L6.87424 10.4905C7.6102 9.75455 8.4917 9.20855 9.50807 9.17812C10.5244 9.1477 11.5375 9.70439 12.3425 10.7388L15.6013 14.9227L17.5625 12.9599C18.2804 12.2412 19.0895 11.7059 20.0516 11.6911C21.0129 11.6771 21.9174 12.1918 22.8014 13.0865L26.2624 16.5788V6.24004C26.2624 3.61033 24.5266 1.30542 22.1526 1.30542H5.70822C3.33424 1.30542 1.59343 3.61115 1.59343 6.24086ZM16.5182 4.18347C18.1225 4.18347 19.4382 5.50491 19.4382 7.11004C19.4382 8.71517 18.1225 10.0284 16.5182 10.0284C14.9139 10.0284 13.5924 8.71434 13.5924 7.11004C13.5933 5.50655 14.9139 4.18347 16.5182 4.18347ZM16.5182 5.82807C15.802 5.82807 15.237 6.39381 15.237 7.11004C15.237 7.82626 15.802 8.38378 16.5182 8.38378C17.2328 8.38378 17.7936 7.82626 17.7936 7.11004C17.7936 6.39381 17.2344 5.82807 16.5182 5.82807ZM9.55658 10.8252C9.12488 10.8383 8.58709 11.1023 8.03368 11.6557L1.59343 18.0951V21.0406C1.59343 23.6712 3.33424 25.9744 5.70822 25.9744H22.1526C24.5266 25.9744 26.2624 23.672 26.2624 21.0406V18.9092L21.6353 14.2468C20.9191 13.5215 20.4307 13.3316 20.0763 13.3365C19.721 13.3414 19.2926 13.5503 18.7228 14.1201L16.616 16.2277L18.6907 18.8919C19.4275 19.7644 18.0592 20.8309 17.3931 19.905L11.0425 11.7462C10.4504 10.9847 9.98911 10.812 9.55658 10.8252Z" fill="white"/>
</svg>
