<svg width="19" height="22" viewBox="0 0 19 22" fill="none" xmlns="http://www.w3.org/2000/svg">
<path fill-rule="evenodd" clip-rule="evenodd" d="M6.53104 10.9976L0.113321 1.0744C-0.089365 0.760918 -0.0128174 0.333374 0.284288 0.119516C0.392551 0.041586 0.520605 -8.57886e-05 0.651711 1.326e-07H8.42276C8.63814 -8.57886e-05 8.83965 0.11217 8.96106 0.299865L15.6291 10.61C15.7801 10.8437 15.7801 11.1512 15.6291 11.3849L8.96102 21.6955C8.83961 21.8832 8.63814 21.9954 8.42276 21.9954H0.651628C0.291821 21.9954 0.0001297 21.6877 4.95911e-05 21.3081C7.62939e-06 21.1698 0.0395432 21.0347 0.113443 20.9205L6.53104 10.9976ZM11.1422 20.9205C10.937 21.2323 11.0102 21.6606 11.3057 21.8772C11.6013 22.0937 12.0072 22.0164 12.2124 21.7046C12.2144 21.7016 12.2164 21.6986 12.2183 21.6955L18.8864 11.385C19.0379 11.1514 19.0379 10.8436 18.8864 10.61L12.2183 0.299478C12.0127 -0.0121147 11.6068 -0.0889283 11.3114 0.127937C11.0199 0.342009 10.9446 0.763066 11.1422 1.07453L17.5599 10.9976L11.1422 20.9205Z" fill="url(#paint0_linear_18_1519)"/>
<defs>
<linearGradient id="paint0_linear_18_1519" x1="19" y1="19.3307" x2="-0.726892" y2="18.4204" gradientUnits="userSpaceOnUse">
<stop stop-color="#6356FE"/>
<stop offset="0.303754" stop-color="#764AEF"/>
<stop offset="0.618202" stop-color="#8A3EDF"/>
<stop offset="1" stop-color="#A330CB"/>
</linearGradient>
</defs>
</svg>
