<svg width="31" height="32" viewBox="0 0 31 32" fill="none" xmlns="http://www.w3.org/2000/svg">
<path d="M19.2588 29.7197L18.9443 31C17.9111 31.2246 17.0651 31.3369 16.4062 31.3369C15.7773 31.3369 14.7367 31.2695 13.2842 31.1348C12.1911 31.0449 11.2103 31 10.3418 31C8.8444 31 7.30208 31.1348 5.71484 31.4043L6.0293 30.1689C7.54167 30.0192 8.64225 29.7048 9.33105 29.2256C9.8252 28.8812 10.2445 28.2972 10.5889 27.4736C10.9482 26.6351 11.7493 23.7301 12.9922 18.7588L15.8672 6.85449L16.0244 6.29297C15.141 6.26302 14.4746 6.24805 14.0254 6.24805C11.2552 6.24805 9.05404 6.54753 7.42188 7.14648C5.80469 7.74544 4.58431 8.61393 3.76074 9.75195C2.95215 10.89 2.54785 12.1178 2.54785 13.4355C2.54785 13.8997 2.63021 14.3265 2.79492 14.7158C2.91471 14.9854 3.24414 15.4196 3.7832 16.0186C4.29232 16.5726 4.54688 17.0817 4.54688 17.5459C4.54688 17.9502 4.39714 18.2946 4.09766 18.5791C3.79818 18.8636 3.4388 19.0059 3.01953 19.0059C2.39062 19.0059 1.88151 18.7064 1.49219 18.1074C0.923177 17.224 0.638672 16.1009 0.638672 14.7383C0.638672 12.9115 1.2002 11.137 2.32324 9.41504C3.46126 7.69303 5.01855 6.36035 6.99512 5.41699C8.97168 4.47363 11.375 4.00195 14.2051 4.00195C15.5527 4.00195 17.7015 4.19661 20.6514 4.58594C22.7477 4.85547 24.2676 4.99023 25.2109 4.99023C26.1543 4.99023 26.8206 4.83301 27.21 4.51855C27.5993 4.2041 27.7939 3.78483 27.7939 3.26074C27.7939 3.15592 27.7715 2.94629 27.7266 2.63184C27.6816 2.34733 27.6592 2.16016 27.6592 2.07031C27.6592 1.66602 27.7939 1.3291 28.0635 1.05957C28.333 0.790039 28.6549 0.655273 29.0293 0.655273C29.4785 0.655273 29.8454 0.819987 30.1299 1.14941C30.4294 1.47884 30.5791 1.92057 30.5791 2.47461C30.5791 3.61263 29.9727 4.59342 28.7598 5.41699C27.5469 6.24056 25.5179 6.65234 22.6729 6.65234C21.6546 6.65234 20.569 6.60742 19.416 6.51758C19.2663 7.05664 18.7946 8.88346 18.001 11.998L16.0469 19.7695L14.8564 24.5088L13.6211 29.9219C14.6243 30.0417 15.4554 30.1016 16.1143 30.1016C17.1175 30.1016 18.1657 29.9743 19.2588 29.7197Z" fill="url(#paint0_linear_26_5281)"/>
<defs>
<linearGradient id="paint0_linear_26_5281" x1="8.5" y1="-3" x2="8.5" y2="43" gradientUnits="userSpaceOnUse">
<stop stop-color="#6A52F8"/>
<stop offset="1" stop-color="#9E32CE"/>
</linearGradient>
</defs>
</svg>
