<svg width="34" height="34" viewBox="0 0 34 34" fill="none" xmlns="http://www.w3.org/2000/svg">
<path fill-rule="evenodd" clip-rule="evenodd" d="M14.5937 0.5H1.875C1.116 0.5 0.5 1.116 0.5 1.875V8.75C0.5 9.509 1.116 10.125 1.875 10.125H14.5937C15.3527 10.125 15.9687 9.509 15.9687 8.75V1.875C15.9687 1.116 15.3527 0.5 14.5937 0.5ZM15.9687 18.0312V15.9687V13.5625C15.9687 12.8035 15.3527 12.1875 14.5937 12.1875H1.875C1.116 12.1875 0.5 12.8035 0.5 13.5625V20.4375C0.5 21.1965 1.116 21.8125 1.875 21.8125H14.5937C15.3527 21.8125 15.9687 21.1965 15.9687 20.4375V18.0312ZM19.4062 0.5H32.125C32.884 0.5 33.5 1.116 33.5 1.875V14.5937C33.5 15.3527 32.884 15.9687 32.125 15.9687H19.4062C18.6472 15.9687 18.0312 15.3527 18.0312 14.5937V12.1875V10.125V1.875C18.0312 1.116 18.6472 0.5 19.4062 0.5ZM18.0312 21.8125V23.875V32.125C18.0312 32.884 18.6472 33.5 19.4062 33.5H32.125C32.884 33.5 33.5 32.884 33.5 32.125V19.4062C33.5 18.6472 32.884 18.0312 32.125 18.0312H19.4062C18.6472 18.0312 18.0312 18.6472 18.0312 19.4062V21.8125ZM0.5 32.125V25.25C0.5 24.491 1.116 23.875 1.875 23.875H14.5937C15.3527 23.875 15.9687 24.491 15.9687 25.25V32.125C15.9687 32.884 15.3527 33.5 14.5937 33.5H1.875C1.116 33.5 0.5 32.884 0.5 32.125Z" fill="url(#paint0_linear_187_133)"/>
<defs>
<linearGradient id="paint0_linear_187_133" x1="0.5" y1="29.4961" x2="34.7377" y2="27.6666" gradientUnits="userSpaceOnUse">
<stop stop-color="#6356FE"/>
<stop offset="0.303754" stop-color="#764AEF"/>
<stop offset="0.618202" stop-color="#8A3EDF"/>
<stop offset="1" stop-color="#A330CB"/>
</linearGradient>
</defs>
</svg>
