<svg width="65" height="65" viewBox="0 0 65 65" fill="none" xmlns="http://www.w3.org/2000/svg">
<path d="M29.8252 24.4752C29.8252 27.4297 27.4295 29.8253 24.475 29.8253C21.5205 29.8253 19.1248 27.4297 19.1248 24.4752C19.1248 21.5206 21.5205 19.125 24.475 19.125C27.4295 19.125 29.8252 21.5206 29.8252 24.4752Z" fill="url(#paint0_linear_26_5277)"/>
<path d="M57.021 48.104H52.5625V19.125C52.5625 15.438 49.562 12.4375 45.875 12.4375H16.896V7.97903C16.896 6.7488 15.8992 5.75 14.6665 5.75C13.4338 5.75 12.4375 6.7488 12.4375 7.97903V12.4375H7.97903C6.74635 12.4375 5.75 13.4363 5.75 14.6665C5.75 15.8972 6.74635 16.896 7.97903 16.896H12.4375V45.875C12.4375 49.562 15.438 52.5625 19.125 52.5625H48.104V57.021C48.104 58.2512 49.1008 59.25 50.3335 59.25C51.5662 59.25 52.5625 58.2512 52.5625 57.021V52.5625H57.021C58.2537 52.5625 59.25 51.5637 59.25 50.3335C59.25 49.1028 58.2537 48.104 57.021 48.104ZM45.875 16.896C47.1056 16.896 48.104 17.8968 48.104 19.125V34.5956L43.0664 29.5575C41.5949 28.084 39.0091 28.084 37.5381 29.5575L26.9272 40.1683L24.1182 37.3597C22.6471 35.8862 20.0613 35.8862 18.5899 37.3597L16.896 39.0516V16.896H45.875Z" fill="url(#paint1_linear_26_5277)"/>
<defs>
<linearGradient id="paint0_linear_26_5277" x1="19.1248" y1="28.5271" x2="30.2265" y2="27.9338" gradientUnits="userSpaceOnUse">
<stop stop-color="#6356FE"/>
<stop offset="0.303754" stop-color="#764AEF"/>
<stop offset="0.618202" stop-color="#8A3EDF"/>
<stop offset="1" stop-color="#A330CB"/>
</linearGradient>
<linearGradient id="paint1_linear_26_5277" x1="5.75" y1="52.7588" x2="61.2566" y2="49.7928" gradientUnits="userSpaceOnUse">
<stop stop-color="#6356FE"/>
<stop offset="0.303754" stop-color="#764AEF"/>
<stop offset="0.618202" stop-color="#8A3EDF"/>
<stop offset="1" stop-color="#A330CB"/>
</linearGradient>
</defs>
</svg>
